<svg xmlns="http://www.w3.org/2000/svg" xmlns:xlink="http://www.w3.org/1999/xlink" data-name="Layer 1" viewBox="0 0 730.56 597"><defs><linearGradient id="d" x1="637.47" x2="466.49" y1="283.45" y2="605.18" gradientUnits="userSpaceOnUse"><stop offset=".02" stop-opacity="0"/><stop offset=".32" stop-color="#17161f" stop-opacity=".36"/><stop offset=".76" stop-color="#343247" stop-opacity=".82"/><stop offset=".99" stop-color="#3f3d56"/></linearGradient><linearGradient id="a" x1="405.81" x2="386.77" y1="-69.41" y2="192.03" gradientUnits="userSpaceOnUse"><stop offset=".01"/><stop offset=".1" stop-opacity=".77"/><stop offset=".99" stop-opacity="0"/></linearGradient><linearGradient id="e" x1="398.24" x2="329.99" y1="275.01" y2="-88.98" xlink:href="#a"/><linearGradient id="f" x1="307.07" x2="-264.01" y1="341.96" y2="343.64" gradientUnits="userSpaceOnUse"><stop offset=".03" stop-opacity="0"/><stop offset=".62" stop-color="#292838" stop-opacity=".66"/><stop offset=".99" stop-color="#3f3d56"/></linearGradient><linearGradient id="g" x1="635" x2="479.85" y1="314.35" y2="316.42" gradientUnits="userSpaceOnUse"><stop offset="0" stop-color="#68e1fd"/><stop offset=".01" stop-color="#67ddf9"/><stop offset=".12" stop-color="#5cb3ce"/><stop offset=".24" stop-color="#538ea9"/><stop offset=".37" stop-color="#4c718b"/><stop offset=".5" stop-color="#465a73"/><stop offset=".63" stop-color="#424a63"/><stop offset=".79" stop-color="#404059"/><stop offset=".99" stop-color="#3f3d56"/></linearGradient><linearGradient id="b" x1="432.31" x2="434.19" y1="125.53" y2="154.06" gradientUnits="userSpaceOnUse"><stop offset="0" stop-color="#183866"/><stop offset="1" stop-color="#1a7fc1"/></linearGradient><linearGradient id="h" x1="432.31" x2="434.19" y1="199.4" y2="227.94" xlink:href="#b"/><linearGradient id="i" x1="446.11" x2="447.98" y1="199.4" y2="227.94" xlink:href="#b"/><linearGradient id="j" x1="459.9" x2="461.77" y1="199.4" y2="227.94" xlink:href="#b"/><linearGradient id="k" x1="432.31" x2="434.19" y1="348.17" y2="376.71" xlink:href="#b"/><linearGradient id="l" x1="446.11" x2="447.98" y1="348.17" y2="376.71" xlink:href="#b"/><linearGradient id="m" x1="459.9" x2="461.77" y1="348.17" y2="376.71" xlink:href="#b"/><linearGradient id="n" x1="703.16" x2="610.33" y1="232.81" y2="196.61" gradientUnits="userSpaceOnUse"><stop offset="0" stop-color="#ecc4d7"/><stop offset=".16" stop-color="#edcbd5"/><stop offset=".42" stop-color="#efd4d1"/><stop offset=".7" stop-color="#f2eac9"/></linearGradient><linearGradient id="c" x1="584" x2="600.93" y1="260.94" y2="260.94" gradientUnits="userSpaceOnUse"><stop offset="0" stop-color="#ecc4d7"/><stop offset=".42" stop-color="#efd4d1"/><stop offset="1" stop-color="#f2eac9"/></linearGradient><linearGradient id="o" x1="590.37" x2="604.5" y1="318.78" y2="318.78" xlink:href="#c"/><linearGradient id="p" x1="638.94" x2="600.41" y1="248.77" y2="294.02" xlink:href="#c"/><linearGradient id="q" x1="129.91" x2="114.49" y1="489.49" y2="523.36" xlink:href="#a"/><linearGradient id="r" x1="166.69" x2="119.52" y1="513.04" y2="506.99" xlink:href="#a"/><linearGradient id="s" x1="168.06" x2="109.09" y1="465.56" y2="502.46" xlink:href="#a"/><linearGradient id="t" x1="157.73" x2="94.22" y1="423.43" y2="497.22" xlink:href="#a"/><linearGradient id="u" x1="94.15" x2="160.05" y1="553.37" y2="571.71" xlink:href="#a"/><linearGradient id="v" x1="142.27" x2="162.11" y1="536.62" y2="631.72" xlink:href="#a"/><linearGradient id="w" x1="151.14" x2="150.53" y1="515.96" y2="563.45" xlink:href="#a"/><linearGradient id="x" x1="125.42" x2="174.1" y1="444.63" y2="498.46" xlink:href="#a"/></defs><path fill="#68e1fd" d="M158.65,127.55C115.48,150.61,71,174.76,40.91,213.38,22.84,236.6,10.8,264.24,4.46,293-6.4,342.09,1.64,399,39,432.76,52,444.56,67.9,452.89,84.3,459.29a243,243,0,0,0,106.91,15.85c29.87-2.33,59.69-10.2,89.41-6.45,36.25,4.56,67.9,25.76,101.67,39.72A265.45,265.45,0,0,0,515,526.51c11.36-1.38,22.86-3.59,32.85-9.17,11.86-6.63,20.65-17.46,30-27.36a261.75,261.75,0,0,1,73.46-54.69c14.43-7.22,29.72-13.21,42.25-23.37,33-26.7,38.65-74.48,36.73-116.85s-11.47-89.14-45.38-114.87c-7.57-5.74-16.09-10.19-23.43-16.24C637,143.78,629.68,110,614,82.39,578.84,20.65,500.39-6.38,429.76,1.26,328.55,12.21,245.66,81.08,158.65,127.55Z" opacity=".18"/><path fill="#68e1fd" d="M688.92,295.5C688,304,677.51,318.27,663,334.31c-23.78,26.24-58.33,57.19-79.11,75.22h0c-10.72,9.31-17.77,15.18-17.77,15.18V263.17s25.16-32.22,43.44-34.29,55.17,19.31,55.17,19.31S692,265.94,688.92,295.5Z"/><path fill="url(#d)" d="M663,334.31c-23.78,26.24-58.33,57.19-79.11,75.22-1.55-2.47-1.86-5.83-2-8.87-.55-15.19-.42-30.4-.28-45.6.13-14.76.26-29.51,1.19-44.24.88-13.72,2.56-27.75,8.84-40a15.34,15.34,0,0,1,3.45,4.48C603,288.89,608,303.88,613,318.76q3.71,11,7.42,22.09A53,53,0,0,0,635.05,329c3.8-4.21,7.19-8.76,10.68-13.22,2.44-3.12,7.2-12,11-8.66C662.89,312.49,663.39,324.78,663,334.31Z" style="isolation:isolate"/><rect width="409.59" height="474.37" x="175" y="50.48" fill="#68e1fd"/><rect width="409.59" height="474.37" x="175" y="50.48" fill="url(#a)" style="isolation:isolate"/><path fill="url(#e)" d="M528.3,73.41,175,105.08c1.59,0,0-44,0-54.6H547.5V54.2A19.21,19.21,0,0,1,528.3,73.41Z" style="isolation:isolate"/><rect width="409.59" height="474.37" x="175" y="105.08" fill="#68e1fd"/><rect width="58.23" height="474.37" x="175" y="105.08" fill="url(#f)" style="isolation:isolate"/><rect width="70.75" height="70.75" x="197.86" y="193.74" fill="#fff"/><rect width="70.75" height="70.75" x="272.54" y="193.74" fill="#fff"/><rect width="70.75" height="70.75" x="347.23" y="193.74" fill="#fff"/><rect width="70.75" height="70.75" x="421.91" y="193.74" fill="#fff"/><rect width="70.75" height="70.75" x="197.86" y="267.6" fill="#fff"/><rect width="70.75" height="70.75" x="272.54" y="267.6" fill="#fff"/><rect width="70.75" height="70.75" x="347.23" y="267.6" fill="#fff"/><rect width="70.75" height="70.75" x="421.91" y="267.6" fill="#fff"/><rect width="70.75" height="70.75" x="197.86" y="341.46" fill="#fff"/><rect width="70.75" height="70.75" x="272.54" y="341.46" fill="#fff"/><rect width="70.75" height="70.75" x="347.23" y="341.46" fill="#fff"/><rect width="70.75" height="70.75" x="421.91" y="341.46" fill="#fff"/><rect width="70.75" height="70.75" x="197.86" y="415.32" fill="#fff"/><rect width="70.75" height="70.75" x="272.54" y="415.32" fill="#fff"/><rect width="70.75" height="70.75" x="347.23" y="415.32" fill="#fff"/><rect width="70.75" height="70.75" x="421.91" y="415.32" fill="#fff"/><rect width="70.75" height="70.75" x="197.86" y="489.18" fill="#fff"/><rect width="70.75" height="70.75" x="272.54" y="489.18" fill="#fff"/><rect width="70.75" height="70.75" x="347.23" y="489.18" fill="#fff"/><rect width="70.75" height="70.75" x="495.34" y="193.74" fill="#fff"/><rect width="70.75" height="70.75" x="495.34" y="119.88" fill="#fff"/><rect width="70.75" height="70.75" x="421.91" y="119.88" fill="#fff"/><rect width="70.75" height="70.75" x="495.34" y="267.6" fill="#fff"/><rect width="70.75" height="70.75" x="495.34" y="341.46" fill="#fff"/><rect width="70.75" height="70.75" x="495.34" y="415.32" fill="#fff"/><path fill="#68e1fd" d="M206.73 31.3V69.66c0 2.07 2.63 3.75 5.86 3.75h0c3.24 0 5.86-1.68 5.86-3.75V31.3c0-2.07-2.62-3.75-5.86-3.75h0C209.36 27.55 206.73 29.23 206.73 31.3zM262.75 31.3V69.66c0 2.07 2.62 3.75 5.86 3.75h0c3.24 0 5.86-1.68 5.86-3.75V31.3c0-2.07-2.62-3.75-5.86-3.75h0C265.37 27.55 262.75 29.23 262.75 31.3zM318.77 31.3V69.66c0 2.07 2.62 3.75 5.86 3.75h0c3.24 0 5.86-1.68 5.86-3.75V31.3c0-2.07-2.62-3.75-5.86-3.75h0C321.39 27.55 318.77 29.23 318.77 31.3zM374.79 31.3V69.66c0 2.07 2.62 3.75 5.86 3.75h0c3.23 0 5.86-1.68 5.86-3.75V31.3c0-2.07-2.63-3.75-5.86-3.75h0C377.41 27.55 374.79 29.23 374.79 31.3zM430.8 31.3V69.66c0 2.07 2.63 3.75 5.87 3.75h0c3.23 0 5.86-1.68 5.86-3.75V31.3c0-2.07-2.63-3.75-5.86-3.75h0C433.43 27.55 430.8 29.23 430.8 31.3zM486.82 31.3V69.66c0 2.07 2.63 3.75 5.86 3.75h0c3.24 0 5.87-1.68 5.87-3.75V31.3c0-2.07-2.63-3.75-5.87-3.75h0C489.45 27.55 486.82 29.23 486.82 31.3zM541.64 31.3V69.66c0 2.07 2.63 3.75 5.86 3.75h0c3.24 0 5.86-1.68 5.86-3.75V31.3c0-2.07-2.62-3.75-5.86-3.75h0C544.27 27.55 541.64 29.23 541.64 31.3z"/><rect width="9.32" height="528.97" x="584.6" y="50.48" fill="url(#g)" style="isolation:isolate"/><path fill="url(#b)" d="M438.25,130.25a5.63,5.63,0,1,1-5.62-5.62A5.63,5.63,0,0,1,438.25,130.25Z"/><path fill="url(#h)" d="M438.25,204.12a5.63,5.63,0,1,1-5.62-5.62A5.63,5.63,0,0,1,438.25,204.12Z"/><path fill="url(#i)" d="M452,204.12a5.63,5.63,0,1,1-5.62-5.62A5.63,5.63,0,0,1,452,204.12Z"/><path fill="url(#j)" d="M465.83,204.12a5.63,5.63,0,1,1-5.62-5.62A5.63,5.63,0,0,1,465.83,204.12Z"/><path fill="url(#k)" d="M438.25,352.9a5.63,5.63,0,1,1-5.62-5.63A5.62,5.62,0,0,1,438.25,352.9Z"/><circle cx="209.74" cy="352.9" r="5.62" fill="#ff2235"/><path fill="url(#l)" d="M452,352.9a5.63,5.63,0,1,1-5.62-5.63A5.62,5.62,0,0,1,452,352.9Z"/><path fill="url(#m)" d="M465.83,352.9a5.63,5.63,0,1,1-5.62-5.63A5.62,5.62,0,0,1,465.83,352.9Z"/><path fill="url(#n)" d="M688.25,201.7c-1.57,6.42.53,15.32-2.45,21.21-5,9.9-19.62,16.47-21.78,27.34-.13.63-16.4,8.47-24.79,5.79-4.39-1.39-6.62-5.67-3.24-15.35,1.06-3,7-4.12,8.6-6.91l-.33-.25c-8.12-6.13-9-19.12-7.32-27.79s5.53-17,9.66-24.92c3.18-6.1,10.36-9.41,17.24-9.3,8.65.15,17.78,3.61,22.28,11C689.56,188.15,689.81,195.28,688.25,201.7Z"/><path fill="#3f3d56" d="M648.29,155c-4.43,2.34-9.14,5.1-14.1,4.35a6.71,6.71,0,0,0,2.82,6.2l-3.08.69a.84.84,0,0,0-.64.36.82.82,0,0,0,.07.68,10.14,10.14,0,0,0,3.59,4.37c-.55,1.18-2.54.92-3.22,2a2.41,2.41,0,0,0,0,2.05,11.1,11.1,0,0,0,3.4,4.77c-1.84,2-.69,5.7,1.85,6.61s5.59-.82,6.46-3.39a5.34,5.34,0,0,1-.76,3.31c8.39,1.32,17.36,2.56,25.08-1a6.58,6.58,0,0,0-.58,2.54,12.08,12.08,0,0,0,5.76.36,33.37,33.37,0,0,1-1.09,12.26c-.69,2.48-1.68,4.88-2.12,7.41A10.06,10.06,0,0,0,673,216c1.33-.12,2.27-1.37,2.78-2.6a13.38,13.38,0,0,1,1.65-3.62c2-2.34,6.16-1.48,7.77,1.11s1,6.07-.54,8.68a13.19,13.19,0,0,1-8.64,6c.29,2.79.59,5.58.88,8.36,5.27-5,11.17-9.29,15.91-14.76s8.33-12.47,7.72-19.69c-.37-4.45-2.31-8.68-2.46-13.15-.07-2,.23-4.05.15-6.07a16.46,16.46,0,0,0-10.85-14.53c-2.55-.87-5.36-1.12-7.62-2.59-2.81-1.82-4.27-5.21-7.06-7.07-3-2-7.66-2.82-11.15-3.81C657,151,652.28,152.91,648.29,155Z"/><path fill="url(#c)" d="M585.38,249.62a3,3,0,0,0-1.38,2,2,2,0,0,0,1.61,1.78,5.89,5.89,0,0,0,2.57-.12l5.08-1a17.36,17.36,0,0,0-6.59,6.5,1.88,1.88,0,0,0,.09,2.05c.68.86,1.83.52,2.75.16l4.41-1.76-3,2.91a13.6,13.6,0,0,0-2.42,2.84,5.89,5.89,0,0,0-.64,1.59,1.39,1.39,0,0,0,1.75,1.64,13.45,13.45,0,0,0,5-2.64,34,34,0,0,1-3.61,4.27,7.18,7.18,0,0,0-2.08,5,1,1,0,0,0,.19.56.92.92,0,0,0,.55.26c1.63.27,3.11-.92,4.34-2l4.53-4.11a10.13,10.13,0,0,0,1.91-2.07,2.85,2.85,0,0,0,.49-1.51,2,2,0,0,0-3.07-1.51c.13-.87.47-1.68.68-2.53a3.58,3.58,0,0,0-.16-2.54,1.73,1.73,0,0,0-2.2-.83,9.67,9.67,0,0,0,1-3.33,3.21,3.21,0,0,0-1.47-3,2.28,2.28,0,0,1-.74-.47c-.4-.49-.08-1.19.09-1.8a2.91,2.91,0,0,0-3-3.89C589.44,246.38,587.29,248,585.38,249.62Z"/><path fill="#68e1fd" d="M667.43,287.19c11.5-10.16,25.74-2.46,20.74,12.05-10.81,31.39-33.44,103.31-54.93,103.31-28,0-39.32-49.65-39.32-49.65l12.93-26.17s18.29,40.13,27.5,29.27S649,304,666.9,287.66Z"/><path fill="url(#o)" d="M602.61,325a62.5,62.5,0,0,1-.12-7,52.75,52.75,0,0,0-8.66-28.65,4.14,4.14,0,0,0-.71,2.9l.15,26.56a30.78,30.78,0,0,1-.44,6.58c-.34,1.58-.92,3.09-1.37,4.65a27.35,27.35,0,0,0-1,10,12.15,12.15,0,0,0,1.43,5.17,5.76,5.76,0,0,0,4.32,2.92c.59,0,3-5,3.35-5.68q1.6-3,3-6.05c.69-1.54,2.16-3.81,1.9-5.54C604.17,328.92,602.85,327.13,602.61,325Z"/><path fill="url(#p)" d="M656.05,240.56c-2.42,2.72-4.82,5.45-7.24,8.18a28.68,28.68,0,0,1-6.52,6,13.17,13.17,0,0,1-3.06,1.32c-4.39-1.39-6.62-5.67-3.24-15.35,1.06-3,7-4.12,8.6-6.91l-.33-.25a15.12,15.12,0,0,0,3.61,1.18c2.6.39,9-1.63,9.79,2.22C657.94,238.28,657,239.53,656.05,240.56Z"/><path fill="#68e1fd" d="M365.28 450l10.08 15.66a3.13 3.13 0 005 .35l27.76-32a3.12 3.12 0 00-2.35-5.17h-.23a3.13 3.13 0 00-2.4 1.12L381.42 456a3.11 3.11 0 01-5-.29l-5.91-9a3.12 3.12 0 00-3.08-1.37h0A3.11 3.11 0 00365.28 450zM243.91 529.19l12.69 12.49a3.16 3.16 0 01-2.22 5.41h-.54a3.19 3.19 0 01-2.24-.92l-12.35-12.36a3.17 3.17 0 00-4.47 0l-12.35 12.36a3.16 3.16 0 01-2.23.92h-.55a3.16 3.16 0 01-2.22-5.41l12.7-12.49a3.15 3.15 0 000-4.48l-12.82-12.82a3.16 3.16 0 012.23-5.39h0a3.14 3.14 0 012.21.9l13 12.82a3.16 3.16 0 004.43 0l13-12.82a3.14 3.14 0 012.21-.9h0a3.16 3.16 0 012.24 5.39l-12.82 12.82A3.15 3.15 0 00243.91 529.19z"/><polygon fill="#68e1fd" points="130.74 489.92 133.84 489.92 135.39 559.98 133.84 548.44 130.74 548.44 130.74 489.92"/><rect width="3.1" height="58.52" x="133.84" y="489.92" fill="#68e1fd"/><path fill="#607c1c" d="M131.64,520.81"/><path fill="#68e1fd" d="M108.63,498.15c-1.75,5.41,3.78,16.12,9.14,21.66s9,4.27,14.46,2.69c1.75-5.41,3.24-9.1-2.13-14.64S114.09,496.57,108.63,498.15Z"/><path fill="#68e1fd" d="M159.54 498.42c-5.41-1.76-16.12 3.78-21.66 9.14s-4.27 9-2.69 14.46c5.41 1.75 9.1 3.24 14.64-2.13S161.13 503.88 159.54 498.42zM133.84 475.79H120c0 9.83 6.19 17.8 13.83 17.8l3.26-8.73z"/><path fill="#68e1fd" d="M133.84 475.79h13.83c0 9.83-6.19 17.8-13.83 17.8zM107.64 455.74c-1.75 5.41 3.78 16.13 9.15 21.66s9 4.28 14.45 2.69c1.75-5.41 3.24-9.1-2.13-14.64S113.1 454.16 107.64 455.74z"/><path fill="#68e1fd" d="M158.56,456c-5.42-1.75-16.13,3.78-21.66,9.15s-4.28,9-2.7,14.45c5.41,1.75,9.11,3.24,14.64-2.13S160.14,461.47,158.56,456Z"/><path fill="#68e1fd" d="M133.59,438.73c-5.12,2.48-9,13.88-9.32,21.59s3.66,16.78,8.58,19.63c5.12-2.48,8.29-11.28,8.58-19S138.51,441.58,133.59,438.73Z"/><polygon fill="#68e1fd" points="106.49 539.51 111.37 578.95 133.94 578.95 143.16 556.51 133.94 538.41 106.49 539.51" style="isolation:isolate"/><polygon fill="#68e1fd" points="161.4 539.51 156.52 578.95 133.94 578.95 133.94 538.41 161.4 539.51" style="isolation:isolate"/><path fill="#68e1fd" d="M144,538.68l-.25.12-7.66,3.8L134,543.66H103.51a3.47,3.47,0,0,1-3.47-3.47v-8.82a3.47,3.47,0,0,1,3.47-3.47H134Z" style="isolation:isolate"/><path fill="#68e1fd" d="M137.42,527.9h30.44a0,0,0,0,1,0,0v15.76a0,0,0,0,1,0,0H137.42a3.47,3.47,0,0,1-3.47-3.47v-8.82A3.47,3.47,0,0,1,137.42,527.9Z" transform="rotate(180 150.9 535.78)" style="isolation:isolate"/><path fill="url(#q)" d="M108.63,498.15c-1.75,5.41,3.78,16.12,9.14,21.66s9,4.27,14.46,2.69c1.75-5.41,3.24-9.1-2.13-14.64S114.09,496.57,108.63,498.15Z" style="isolation:isolate"/><path fill="url(#r)" d="M159.54,498.42c-5.41-1.76-16.12,3.78-21.66,9.14s-4.27,9-2.69,14.46c5.41,1.75,9.1,3.24,14.64-2.13S161.13,503.88,159.54,498.42Z" style="isolation:isolate"/><path fill="url(#s)" d="M147.48,478.69c-1.07,8.45-6.77,14.9-13.64,14.9V478.36c.11.41.24.82.36,1.25C139.15,481.21,142.67,482.6,147.48,478.69Z" style="isolation:isolate"/><path fill="url(#t)" d="M107.64,455.74c-1.75,5.41,3.78,16.13,9.15,21.66s9,4.28,14.45,2.69c1.75-5.41,3.24-9.1-2.13-14.64S113.1,454.16,107.64,455.74Z" style="isolation:isolate"/><g style="isolation:isolate"><polygon fill="url(#u)" points="133.95 543.66 133.95 578.95 111.37 578.95 107 543.66 133.95 543.66" style="isolation:isolate"/><polygon fill="url(#v)" points="160.89 543.66 156.52 578.95 133.95 578.95 133.95 543.66 160.89 543.66" style="isolation:isolate"/><path fill="url(#w)" d="M167.85,531.77v8.82a3.47,3.47,0,0,1-3.47,3.47H134V528.3h30.43A3.47,3.47,0,0,1,167.85,531.77Z" style="isolation:isolate"/></g><path fill="#1d2741" d="M114,579,56.64,590a3.5,3.5,0,0,0,.73,7H705.23a3.51,3.51,0,0,0,.49-7l-83.61-10.52-.48,0-506.9-.5A3.64,3.64,0,0,0,114,579Z" opacity=".18"/><path fill="url(#x)" d="M148.84,477.48c-.47.45-.92.86-1.36,1.21-4.81,3.91-8.33,2.52-13.28.92-.12-.43-.25-.84-.36-1.25-1.38-4.79-2.05-8.26,3.06-13.2,5.53-5.37,16.24-10.9,21.66-9.15C160.14,461.47,154.38,472.12,148.84,477.48Z" style="isolation:isolate"/></svg>