<svg xmlns="http://www.w3.org/2000/svg" xmlns:xlink="http://www.w3.org/1999/xlink" data-name="Layer 1" viewBox="0 0 726.63 598.16"><defs><linearGradient id="b" x1="362.32" x2="379.08" y1="515.54" y2="515.54" gradientUnits="userSpaceOnUse"><stop offset="0" stop-color="#183866"/><stop offset="1" stop-color="#1a7fc1"/></linearGradient><linearGradient id="a" x1="402.86" x2="410.55" y1="517.66" y2="517.66" gradientUnits="userSpaceOnUse"><stop offset="0"/><stop offset=".99" stop-opacity="0"/></linearGradient><linearGradient id="e" x1="420.01" x2="465.76" y1="504.94" y2="484.51" xlink:href="#a"/><linearGradient id="f" x1="419.3" x2="363.69" y1="445.53" y2="464.18" xlink:href="#a"/><linearGradient id="g" x1="450.15" x2="307.62" y1="505.87" y2="553.68" xlink:href="#a"/><linearGradient id="h" x1="454.97" x2="450.03" y1="520.35" y2="522.01" xlink:href="#a"/><linearGradient id="i" x1="400.43" x2="357.12" y1="506.19" y2="494.42" xlink:href="#a"/><linearGradient id="j" x1="399.81" x2="399.81" y1="498.85" y2="498.85" xlink:href="#a"/><linearGradient id="k" x1="752.82" x2="-22.22" y1="450.75" y2="488.03" xlink:href="#a"/><linearGradient id="l" x1="319.78" x2="714.67" y1="330.17" y2="330.17" xlink:href="#b"/><linearGradient id="c" x1="525.27" x2="526.84" y1="316.15" y2="335.15" gradientUnits="userSpaceOnUse"><stop offset="0" stop-color="#68e1fd"/><stop offset=".2" stop-color="#5db4cf"/><stop offset=".46" stop-color="#50819b"/><stop offset=".69" stop-color="#475c76"/><stop offset=".87" stop-color="#41455e"/><stop offset=".99" stop-color="#3f3d56"/></linearGradient><linearGradient id="m" x1="464.51" x2="476.36" y1="282.67" y2="352.21" xlink:href="#c"/><linearGradient id="n" x1="442.69" x2="442.47" y1="320.86" y2="350.82" xlink:href="#c"/><linearGradient id="o" x1="189.55" x2="121.95" y1="576.32" y2="578.9" xlink:href="#a"/><linearGradient id="p" x1="199.83" x2="143.82" y1="545.3" y2="547.23" xlink:href="#a"/><linearGradient id="q" x1="90.27" x2="61.94" y1="497.13" y2="633.61" xlink:href="#a"/><linearGradient id="r" x1="133.41" x2="76.38" y1="529.43" y2="269.34" xlink:href="#a"/><linearGradient id="s" x1="136.6" x2="129.94" y1="534.64" y2="504.25" xlink:href="#a"/><linearGradient id="t" x1="128.61" x2="192.59" y1="548.21" y2="329.18" xlink:href="#a"/><linearGradient id="d" x1="391.96" x2="452.68" y1="119.39" y2="119.39" gradientUnits="userSpaceOnUse"><stop offset="0" stop-color="#ecc4d7"/><stop offset=".42" stop-color="#efd4d1"/><stop offset="1" stop-color="#f2eac9"/></linearGradient><linearGradient id="u" x1="404.29" x2="460.74" y1="330.11" y2="330.11" xlink:href="#d"/><linearGradient id="v" x1="487.01" x2="532.02" y1="311.91" y2="311.91" xlink:href="#d"/><linearGradient id="w" x1="786.69" x2="536.94" y1="265.23" y2="99.89" xlink:href="#a"/><linearGradient id="x" x1="743.88" x2="570.27" y1="354.36" y2="192.47" xlink:href="#a"/><linearGradient id="y" x1="452.25" x2="450.57" y1="522.58" y2="523.14" xlink:href="#a"/></defs><path fill="#68e1fd" d="M593.69,104.35C571.51,79.12,554.34,49,527.83,28.4,486.19-4,426.26-7.16,377.57,13.2S290.92,74.6,265.92,121.07c-13.15,24.45-23.48,51.12-42.75,71.1-16.29,16.88-37.7,27.65-58,39.38-32.7,18.87-64.22,41.65-85.4,72.92S49.12,376.81,62.66,412.05c9.13,23.78,27.52,42.7,46.36,59.83,22.17,20.14,46,39.05,73.5,51,34.41,14.93,72.65,18.14,110.13,19.66a1415,1415,0,0,0,199.16-6c54.18-5.46,110-14.78,155.33-44.95,63.5-42.25,96.24-119.66,103.61-195.57,3-30.36,2.24-61.91-9.48-90.08C713.24,138.56,637.61,154.32,593.69,104.35Z" opacity=".18" transform="translate(-55.95 -.41)"/><path fill="#3f3d56" d="M324.81,239.63s-25.13-4.42-32.17,13,0,77.58,0,77.58l93.76,66.38Z" transform="translate(-55.95 -.41)"/><path fill="#68e1fd" d="M442.91,507.56l-36.37,10.77a10,10,0,0,1-12.4-6.74h0a10,10,0,0,1,6.74-12.4l36.36-10.76a10,10,0,0,1,12.4,6.73h0A10,10,0,0,1,442.91,507.56Z" transform="translate(-55.95 -.41)"/><circle cx="440.91" cy="530.61" r="16.76" fill="#25233a" transform="rotate(-76.8 412.663 565.697)"/><circle cx="381.93" cy="531.71" r="8.38" fill="#3f3d56"/><circle cx="373.72" cy="514.03" r="16.76" fill="#25233a" transform="rotate(-45 345.252 581.372)"/><path fill="url(#b)" d="M379.08,515.54a8.38,8.38,0,1,1-8.38-8.38A8.39,8.39,0,0,1,379.08,515.54Z" transform="translate(-55.95 -.41)"/><circle cx="312.91" cy="536.54" r="16.76" fill="#25233a"/><path fill="#3f3d56" d="M382.1,537.51a8.38,8.38,0,1,1-8.38-8.38A8.38,8.38,0,0,1,382.1,537.51Z" transform="translate(-55.95 -.41)"/><path fill="#68e1fd" d="M444.27,524l-76.65-15.47a10,10,0,0,1-7.8-11.76h0a10,10,0,0,1,11.75-7.8l76.65,15.46a10,10,0,0,1,7.8,11.76h0A10,10,0,0,1,444.27,524Z" transform="translate(-55.95 -.41)"/><path fill="#68e1fd" d="M341.07,403.17H362a0,0,0,0,1,0,0v88.15a10.46,10.46,0,0,1-10.46,10.46h0a10.46,10.46,0,0,1-10.46-10.46V403.17A0,0,0,0,1,341.07,403.17Z"/><path fill="#68e1fd" d="M404.53,518.21,368.17,529a10,10,0,0,1-12.41-6.74h0a10,10,0,0,1,6.74-12.4l36.36-10.76a10,10,0,0,1,12.4,6.73h0A10,10,0,0,1,404.53,518.21Z" transform="translate(-55.95 -.41)"/><path fill="url(#a)" d="M410.55,517.14l-4,1.19a9.9,9.9,0,0,1-3.68.37l1.67-.49a9.83,9.83,0,0,0,3.21-1.63Z" transform="translate(-55.95 -.41)" style="isolation:isolate"/><path fill="url(#e)" d="M450.06,498a9.94,9.94,0,0,1-2.26,6.3L416,497.87a10.31,10.31,0,0,0,1.7-3.64l19.59-5.8A10,10,0,0,1,450.06,498Z" transform="translate(-55.95 -.41)" style="isolation:isolate"/><path fill="url(#f)" d="M397.29,494.11a10.4,10.4,0,0,1-.27-2.38V403.58h7.27v95a3.54,3.54,0,0,0,.07,1.4,9.46,9.46,0,0,0-3.48-.77,18.49,18.49,0,0,0-2.54,0l.52-.15C399.18,499,397.71,495.91,397.29,494.11Z" opacity=".31" transform="translate(-55.95 -.41)" style="isolation:isolate"/><path fill="url(#g)" d="M451,522.92a9.87,9.87,0,0,1-4.77,1.23,10.39,10.39,0,0,1-2-.2l-33.72-6.81-2.81-.56a9.83,9.83,0,0,1-3.21,1.63l-1.67.49L368.17,529a10,10,0,0,1-12.41-6.74,8.55,8.55,0,0,0,10.87.62c4.23-2.93,21.07-7.33,30.61-9.67a11.73,11.73,0,0,0,8.8-9.27c0-.28.09-.54.12-.8,1.59,1.72,4.51,3.65,9.79,5.29,13,4,34.11,6.65,34.11,6.65S453.87,518.82,451,522.92Z" opacity=".31" transform="translate(-55.95 -.41)" style="isolation:isolate"/><path fill="url(#h)" d="M454.62,519.56a9.68,9.68,0,0,1-2.49,2.65C452.8,521.52,453.66,520.6,454.62,519.56Z" transform="translate(-55.95 -.41)" style="isolation:isolate"/><path fill="url(#i)" d="M397.29,494.11a10.43,10.43,0,0,0,2.52,4.74c-.31.06-.63.14-.95.23l-31.52,9.33a10,10,0,0,1,2.24-19.69,10.41,10.41,0,0,1,2,.2Z" transform="translate(-55.95 -.41)" style="isolation:isolate"/><path fill="url(#j)" d="M399.81 498.85" transform="translate(-55.95 -.41)" style="isolation:isolate"/><path fill="#3f3d56" d="M445.85,69.5s-.41-31.08-25.32-28.4-23-7.61-33.64-6.48-23,11.63-19.45,24.6-9.39,15.87-17.89,25.71,2,17.89,16.32,27.51-.89,7.13,7.6,22.34,37.23-4.22,37.23-4.22Z" transform="translate(-55.95 -.41)"/><path fill="#68e1fd" d="M242.66,589.51l17.67.6V449s.89-36.49,35.33-40.15,346.78-48.87,346.78-48.87,12.38-1.31,19.49,22.4S676,499.47,676,499.47l95.89,12.9s2.53-164.86-32.09-173.95-487.37,37.27-487.37,37.27S218.85,550.82,242.66,589.51Z" transform="translate(-55.95 -.41)"/><path fill="url(#k)" d="M242.66,589.51l17.67.6V449s.89-36.49,35.33-40.15,346.78-48.87,346.78-48.87,12.38-1.31,19.49,22.4S676,499.47,676,499.47l95.89,12.9s2.53-164.86-32.09-173.95-487.37,37.27-487.37,37.27S218.85,550.82,242.66,589.51Z" transform="translate(-55.95 -.41)" style="isolation:isolate"/><path fill="#68e1fd" d="M149.42,393s8.66-47.92,69.57-60.48L648.9,283.26s42.21-1.75,61.52,9.94,46.87,21.38,58.17,74.28,14,143.27,14,143.27l-10.68,1.62s-15.56-163.6-32.09-173.95-463.46,53.2-463.46,53.2-31,6.17-33.7,52.11,0,145.78,0,145.78l-93.24-37.65Z" transform="translate(-55.95 -.41)"/><path fill="url(#l)" d="M591.77,301.7c-22.25-2.9-44.68-5-67.1-4.15-16.85.66-33.59,3-50.3,5.33L327,323.49c-2.5.35-5.35.92-6.6,3.12-2.4,4.2,3.24,8.34,7.81,9.94,49,17.18,101.35,34.58,151.79,22.33,23.06-5.6,44.48-17.23,67.87-21.27s47.4-.32,70.74-4.13c21.94-3.58,42.83-13.75,65.07-13.85,6.82,0,13.84.88,20.31-1.28s12.19-8.76,10.4-15.34c-20.88-.73-44.32-4.59-64.8-.4C629.32,306.75,612.07,301.7,591.77,301.7Z" opacity=".19" transform="translate(-55.95 -.41)"/><path fill="url(#c)" d="M458.5,326.82l.86,3.29s25.46,15.83,25.3,16.34,105.61-25.27,105.61-25.27l2.46-7.4Z" transform="translate(-55.95 -.41)" style="isolation:isolate"/><polygon fill="url(#m)" points="404.93 326.41 497.98 305.44 536.77 313.37 431.06 339.96 404.93 326.41" style="isolation:isolate"/><path fill="url(#n)" d="M431.59,343.43l22.09.74s5.61.33,7.06-3.93-8.95-13.25-10.12-13.42-30.19,7.55-26,15.27Z" transform="translate(-55.95 -.41)" style="isolation:isolate"/><path fill="#68e1fd" d="M176.26,561l-10.75,32.64c-31.18,11.07-57.69,0-57.69,0l-7.71-34.21S139,572.3,176.26,561Z" transform="translate(-55.95 -.41)"/><path fill="url(#o)" d="M176.26,561l-10.75,32.64c-31.18,11.07-57.69,0-57.69,0l-7.71-34.21S139,572.3,176.26,561Z" transform="translate(-55.95 -.41)" style="isolation:isolate"/><path fill="#68e1fd" d="M188.45,530.61,185,556.42,176.26,561c-37.23,11.29-76.15-1.57-76.15-1.57l-6.71-5-3.13-23.82Z" transform="translate(-55.95 -.41)"/><path fill="url(#p)" d="M188.45,530.61,185,556.42,176.26,561c-37.23,11.29-76.15-1.57-76.15-1.57l-6.71-5-3.13-23.82Z" transform="translate(-55.95 -.41)" style="isolation:isolate"/><ellipse cx="83.4" cy="530.2" fill="#68e1fd" rx="49.08" ry="8.83"/><ellipse cx="83.4" cy="530.2" fill="url(#q)" rx="49.08" ry="8.83" style="isolation:isolate"/><path fill="#68e1fd" d="M116,333.59c-4.82-2.28-10-4-14.17-7.33-8.4-6.77-10.53-18.43-13.16-28.89s-7.71-22-18.09-25c-3.88-1.11-8.43-.67-11.38,2.09-3.11,2.93-3.74,7.73-2.89,11.92s2.92,8,4.52,12a55.18,55.18,0,0,1,3.29,29.31c-1.31,8.11-4.44,16.33-2.43,24.28,3.41,13.49,20.4,21.4,20.87,35.3.32,9.38-7.4,18.06-5.65,27.29,1.29,6.83,7.58,12.16,7.92,19.1.38,7.87-7.06,14.53-6.7,22.4s8.22,13.16,13.35,19.31a32.17,32.17,0,0,1,7.31,18.35c.27,4.2-.27,8.55,1.1,12.53,1,2.91,3,5.38,4.55,8,1.71,2.83,3,5.89,5.06,8.51a20.82,20.82,0,0,0,22.3,7c1.59-10.46.2-21.13.64-31.7.87-20.48,8.62-41.12,3.66-61-1.82-7.29-5.32-14.21-5.94-21.69-.55-6.68,1.23-13.3,2.47-19.89,2.56-13.61,2.52-27.68,1.47-41.44C133.27,343.16,125.59,338.13,116,333.59Z" transform="translate(-55.95 -.41)"/><path fill="#68e1fd" d="M146.65,387.23c-.08,9.13,2,18.57-.92,27.24-2.21,6.57-7.07,11.95-9.58,18.41-5.79,14.91,2,31.63.41,47.55-.66,6.56-2.91,12.86-4.33,19.3a77.3,77.3,0,0,0-1.33,24.83,6.27,6.27,0,0,0,4.95,6.54A78.13,78.13,0,0,0,151,535.19a40.19,40.19,0,0,1,5.18-28.05c7.93-13,23.34-21.76,26.21-36.69,1.94-10.11-2.58-20.37-2.26-30.66a32.93,32.93,0,0,1,6.74-18.9c3.73-4.86,8.78-8.62,12.25-13.66,8.34-12.15,5.74-28.39,3.26-42.92s-3.92-31.25,5.88-42.26c3.1-3.48,7.14-6.09,9.95-9.81,6.26-8.29,4.68-21.06-2.6-28.47s-19-9.46-28.9-6.2c-4.1,1.36-8,3.65-10.54,7.17-5,7.1-3,16.8-.88,25.24,1.85,7.33,3.34,15.79.81,23.18-1.89,5.5-6.68,8.48-10.75,12.31C153.89,356.22,146.78,371.46,146.65,387.23Z" transform="translate(-55.95 -.41)"/><path fill="url(#r)" d="M136.32,468.13c-1.42,9.92-3.47,19.92-3.89,29.87,0,.34,0,.67,0,1s-.12.48-.17.72a77.3,77.3,0,0,0-1.33,24.83,9.32,9.32,0,0,0,1.06,3.89c-.05.42-.11.83-.17,1.25a20.82,20.82,0,0,1-22.3-7c-2-2.62-3.35-5.68-5.06-8.51-1.6-2.63-3.55-5.1-4.55-8-1.37-4-.83-8.33-1.1-12.53a32.17,32.17,0,0,0-7.31-18.35c-5.13-6.15-13-11.31-13.35-19.31s7.08-14.53,6.7-22.4c-.34-6.94-6.63-12.27-7.92-19.1-1.75-9.23,6-17.91,5.65-27.29-.47-13.9-17.46-21.81-20.87-35.3-2-7.95,1.12-16.17,2.43-24.28a55.18,55.18,0,0,0-3.29-29.31c-1.6-4-3.67-7.77-4.52-12s-.22-9,2.89-11.92c3-2.76,7.5-3.2,11.38-2.09,10.38,3,15.45,14.54,18.09,25s4.76,22.12,13.16,28.89c4.15,3.35,9.35,5.05,14.17,7.33,9.6,4.54,17.28,9.57,18.1,20.39,1,13.76,1.09,27.83-1.47,41.44-1.24,6.59-3,13.21-2.47,19.89s3.44,13,5.34,19.48c.21.73.42,1.47.6,2.21C138.64,447.22,137.83,457.63,136.32,468.13Z" transform="translate(-55.95 -.41)" style="isolation:isolate"/><path fill="url(#s)" d="M132,528.45a9.32,9.32,0,0,1-1.06-3.89,77.3,77.3,0,0,1,1.33-24.83c.05-.24.11-.48.17-.72C132.09,508.83,133.23,518.73,132,528.45Z" transform="translate(-55.95 -.41)" style="isolation:isolate"/><path fill="url(#t)" d="M218.17,312.24c-2.81,3.72-6.85,6.33-9.95,9.81-9.8,11-8.36,27.73-5.88,42.26s5.08,30.77-3.26,42.92c-3.47,5-8.52,8.8-12.25,13.66a32.93,32.93,0,0,0-6.74,18.9c-.32,10.29,4.2,20.55,2.26,30.66-2.87,14.93-18.28,23.71-26.21,36.69A40.19,40.19,0,0,0,151,535.19a78.13,78.13,0,0,1-15.11-4.09,8.1,8.1,0,0,1-3.52-2.13,3.77,3.77,0,0,1-.37-.52,9.32,9.32,0,0,1-1.06-3.89,77.3,77.3,0,0,1,1.33-24.83c.05-.24.11-.48.17-.72,1.42-6.19,3.52-12.26,4.16-18.58a59.6,59.6,0,0,0-.24-12.3c1.51-10.5,2.32-20.91-.23-31.13-.18-.74-.39-1.48-.6-2.21.19-.64.41-1.28.66-1.91,2.51-6.46,7.37-11.84,9.58-18.41,2.91-8.67.84-18.11.92-27.24.13-15.77,7.24-31,18.66-41.76,4.07-3.83,8.86-6.81,10.75-12.31,2.53-7.39,1-15.85-.81-23.18-2.13-8.44-4.15-18.14.88-25.24,2.5-3.52,6.44-5.81,10.54-7.17,9.86-3.26,21.63-1.21,28.9,6.2S224.43,304,218.17,312.24Z" transform="translate(-55.95 -.41)" style="isolation:isolate"/><path fill="none" stroke="#6c62ff" stroke-miterlimit="10" stroke-width="1.86" d="M505.11-16.44" transform="translate(-55.95 -.41)"/><path fill="#68e1fd" d="M395.42,155.37s-42.07,6.43-61.53,52.3-9.34,102.78-9,107.73,59.63,26.69,76.58,26.69,20.48-16.78,20.48-16.78L392,312.7l91-10.39h16.34l-9,14.95s17.76,1.84,29.63,2.26,19.93-22.79,21.26-34.33S488.8,172.45,480.77,166.36,450.9,145.75,395.42,155.37Z" transform="translate(-55.95 -.41)"/><path fill="url(#d)" d="M445.85,69.5s7.45,4.25,6.78,18-4.87,34.44-9.11,39.8-19.07,7.46-19.07,7.46,8.09,19.49,14.11,24.52-6.05,23.56-17.79,17.48-25.35-21.39-25.35-21.39,9.79-18.39,6.48-28.07-16-43.61-6.48-52.91S425.31,51.83,445.85,69.5Z" transform="translate(-55.95 -.41)"/><polygon fill="#fff" points="322.44 221.03 315.85 301.9 336 312.29 352.4 309.48 331.94 284.79 322.44 221.03" opacity=".25"/><path fill="#fff" d="M484.66,217.36s26.35,62.71,14.67,84.95l-9-1.73Z" opacity=".25" transform="translate(-55.95 -.41)"/><path fill="url(#u)" d="M411,322.41s-10.06,9-5.57,16,9.85,6.8,14.32,3.67,13.25-10.56,23.71-7.15,13,5.58,13,5.58,5.51-3.61,4.08-7.23S448.17,317.93,445,316.37s-16.33,3.15-16.33,3.15S419,316.82,411,322.41Z" transform="translate(-55.95 -.41)"/><path fill="url(#v)" d="M502.32,305.52s-9.58,1.1-12,7.18-3.29,6.82-3.29,6.82,5.41,1,7.66-1.83,4.59-1.64,4.59-1.64l-.67,3.63s14.7,2.14,21.34-.16,9.49-5,9.49-5l2.6-6.14s-6.27-4.39-11-5.07S502.32,305.52,502.32,305.52Z" transform="translate(-55.95 -.41)"/><path fill="#25233a" d="M550.94,373.13s32.63,24.84,29.73,58.44-7.16,83.49-7.16,83.49-13.16,5.54-21.88,0-14-81.35-18.32-88.59S503,386.59,475.23,383.78Z" transform="translate(-55.95 -.41)"/><path fill="#3f3d56" d="M386.4,396.55s15.73,15,43.77,19.71,41.11,8.64,49.68,32.75,16.79,76,19.48,81.8,14.13,2.84,14.13,2.84,6.47-7.42,6.47-48.68c0-57.52,4-69.31-10.41-83.76S482,382.82,482,382.82Z" transform="translate(-55.95 -.41)"/><path fill="#25233a" d="M499.33 530.81L502 551.86h5s32.2 1.76 33.21 1-1.55-16.67-13.75-16.22-13-3-13-3zM555.57 516.79l5.2 20.72 56.82-7.8s2-13.61-16-12.26c-4.75.35-8.29 3.69-14 3.72s-11.18-2.31-14.06-6.11h0z" transform="translate(-55.95 -.41)"/><path fill="#68e1fd" d="M753.7,256.13,538.63,267.65a9.43,9.43,0,0,1-9.93-9.41V105.83a11.34,11.34,0,0,1,11.11-11.34L754,90.07a10.36,10.36,0,0,1,10.57,10.36V244.66A11.49,11.49,0,0,1,753.7,256.13Z" transform="translate(-55.95 -.41)"/><path fill="#68e1fd" d="M763.62,256.13,548.55,267.65a9.43,9.43,0,0,1-9.92-9.41V105.83a11.33,11.33,0,0,1,11.1-11.34l214.19-4.42a10.36,10.36,0,0,1,10.58,10.36V244.66A11.5,11.5,0,0,1,763.62,256.13Z" transform="translate(-55.95 -.41)"/><path fill="url(#w)" d="M763.62,256.13,548.55,267.65a9.43,9.43,0,0,1-9.92-9.41V105.83a11.33,11.33,0,0,1,11.1-11.34l214.19-4.42a10.36,10.36,0,0,1,10.58,10.36V244.66A11.5,11.5,0,0,1,763.62,256.13Z" transform="translate(-55.95 -.41)" style="isolation:isolate"/><path fill="#68e1fd" d="M701,313.7l-54.61,5.82s-16.63-3.36-15.73-5.82,18.27-4.83,18.27-4.83V209.71h0c-.15-.22-2.44-3.14-8.71-5h0a32.78,32.78,0,0,0-3.7-.86,10.81,10.81,0,0,1-3.1-.94c-3.73-1.93.39-5.29,6.18-5.44a14.81,14.81,0,0,1,2.71.16h42s15.9,4.48,16.67,26.84S701,313.7,701,313.7Z" transform="translate(-55.95 -.41)"/><path fill="#68e1fd" d="M656.56,313.91l-10.2,5.61s-16.63-3.36-15.73-5.82,18.27-4.83,18.27-4.83V209.71h0c-.21-.23-2.76-2.86-8.71-5h0a43.55,43.55,0,0,0-6.8-1.8c-3.73-1.93.39-5.29,6.18-5.44,4.93.67,14.64,6.07,15.27,9.15S656.56,313.91,656.56,313.91Z" transform="translate(-55.95 -.41)"/><path fill="url(#x)" d="M656.56,313.91l-10.2,5.61s-16.63-3.36-15.73-5.82,18.27-4.83,18.27-4.83V209.71h0c-.21-.23-2.76-2.86-8.71-5h0a43.55,43.55,0,0,0-6.8-1.8c-3.73-1.93.39-5.29,6.18-5.44,4.93.67,14.64,6.07,15.27,9.15S656.56,313.91,656.56,313.91Z" transform="translate(-55.95 -.41)" style="isolation:isolate"/><path fill="url(#y)" d="M452.13,522.21c-1.27,1.3-1.86,1.78-1.11.71A8,8,0,0,0,452.13,522.21Z" transform="translate(-55.95 -.41)"/></svg>